<?xml version="1.0" encoding="iso-8859-1"?>
<!-- Uploaded to: SVG Repo, www.svgrepo.com, Generator: SVG Repo Mixer Tools -->
<svg height="800px" width="800px" version="1.1" id="Layer_1" xmlns="http://www.w3.org/2000/svg" xmlns:xlink="http://www.w3.org/1999/xlink" 
	 viewBox="0 0 512.001 512.001" xml:space="preserve">
<circle style="fill:#CEE8FA;" cx="252.109" cy="241.331" r="157.801"/>
<g>
	<path style="fill:#2D527C;" d="M264.762,229.451v-44.94c17.939,3.146,20.636,13.09,21.041,18.937
		c0.104,1.498,1.34,2.657,2.843,2.657h19.593c1.645,0,2.94-1.393,2.856-3.035c-1.271-24.649-18.167-40.509-46.332-44.071v-15.114
		c0-1.576-1.277-2.852-2.852-2.852h-19.591c-1.576,0-2.852,1.277-2.852,2.852v15.114c-29.306,3.706-46.41,20.724-46.41,47.106
		s17.104,43.399,46.41,47.105v44.942c-17.939-3.146-20.636-13.09-21.041-18.937c-0.104-1.498-1.34-2.657-2.843-2.657h-19.593
		c-1.645,0-2.94,1.393-2.856,3.035c1.271,24.649,18.167,40.509,46.332,44.071v15.114c0,1.576,1.277,2.852,2.852,2.852h19.591
		c1.576,0,2.852-1.277,2.852-2.852v-15.115c29.306-3.706,46.41-20.724,46.41-47.106
		C311.172,250.175,294.068,233.157,264.762,229.451z M239.466,227.695c-21.109-3.701-21.113-16.816-21.113-21.592
		c0-4.775,0.005-17.892,21.113-21.593V227.695z M264.762,298.149v-43.185c21.109,3.701,21.113,16.817,21.113,21.593
		C285.875,281.332,285.872,294.447,264.762,298.149z"/>
	<path style="fill:#2D527C;" d="M501.086,340.224c-0.009-3.981-1.599-7.795-4.419-10.605c-2.822-2.808-6.688-4.347-10.624-4.372
		l-59.006,0.129c-8.29,0.018-14.995,6.753-14.977,15.042c0.018,8.28,6.735,14.979,15.01,14.979c0.01,0,0.023,0,0.033,0l25.706-0.057
		l-93.787,83.921l-26.805-44.796c15.156-7.916,29.376-18.228,42.091-30.942c67.377-67.379,67.377-177.009,0-244.386
		s-177.007-67.377-244.386,0c-5.861,5.861-5.863,15.366,0,21.229c5.863,5.86,15.367,5.861,21.227,0
		c55.675-55.675,146.261-55.672,201.932,0c55.672,55.672,55.672,146.258,0,201.93c-10.935,10.935-23.228,19.687-36.327,26.328
		l-2.029-3.392c-2.376-3.97-6.447-6.621-11.038-7.19c-4.592-0.564-9.186,1.012-12.457,4.284l-20.483,20.483
		c-42.493,5.546-87.021-7.934-119.597-40.511c-5.861-5.86-15.366-5.86-21.227,0c-5.861,5.861-5.861,15.366,0,21.229
		c30.593,30.592,69.897,47.292,110.003,50.104l-34.139,34.139c-0.716-0.291-1.453-0.546-2.227-0.728
		C107.73,424.508,40.805,339.919,40.805,241.328c0-56.444,21.981-109.507,61.891-149.417S195.671,30.02,252.115,30.02
		c116.515,0,211.31,94.793,211.31,211.308c0,8.289,6.72,15.01,15.01,15.01c8.29,0,15.01-6.721,15.01-15.01
		C493.445,108.26,385.185,0,252.115,0C187.653,0,127.049,25.103,81.468,70.684S10.785,176.868,10.785,241.328
		c0,54.716,18.82,108.308,52.991,150.905c30.329,37.807,71.671,65.774,117.653,79.888l-14.255,14.255
		c-5.861,5.861-5.861,15.366,0,21.229c2.931,2.93,6.773,4.396,10.614,4.396s7.684-1.466,10.614-4.396l96.701-96.701
		c6.429-1.241,12.798-2.858,19.076-4.83L342.6,470.28c2.3,3.844,6.196,6.46,10.626,7.133c4.426,0.672,8.925-0.666,12.265-3.655
		l105.663-94.547l0.044,20.085c0.018,8.28,6.735,14.979,15.01,14.979c0.01,0,0.023,0,0.033,0c8.29-0.018,14.995-6.753,14.977-15.042
		L501.086,340.224z"/>
</g>
</svg>